<svg width="57" height="14" viewBox="0 0 57 14" fill="none" xmlns="http://www.w3.org/2000/svg">
<g clip-path="url(#clip0_2_355)">
<path d="M18.2817 3.87697C17.1225 3.87697 16.3533 4.3601 15.9393 5.26232L15.9098 4.0162H14.1147V14.0005H16.0951V10.2398C16.5316 10.9722 17.2558 11.376 18.2817 11.376C20.2396 11.376 21.4958 9.88758 21.4958 7.61533C21.4958 5.35839 20.2396 3.87697 18.2817 3.87697ZM17.8158 9.63836C16.7435 9.63836 16.0277 8.80297 16.0277 7.61533C16.0277 6.42768 16.7379 5.63685 17.8158 5.63685C18.8937 5.63685 19.5 6.39845 19.5 7.61533C19.5 8.83221 18.8867 9.63836 17.8158 9.63836Z" fill="white"/>
<path d="M25.8479 3.87697C23.49 3.87697 22.116 5.43079 22.116 7.62229C22.116 9.81379 23.497 11.376 25.8479 11.376C28.1988 11.376 29.5728 9.81518 29.5728 7.62229C29.5728 5.42939 28.2058 3.87697 25.8479 3.87697ZM25.8479 9.6314C24.7686 9.6314 24.0753 8.85449 24.0753 7.62229C24.0753 6.39009 24.777 5.6285 25.8479 5.6285C26.9188 5.6285 27.6065 6.39148 27.6065 7.62229C27.6065 8.85309 26.9272 9.6314 25.8479 9.6314Z" fill="white"/>
<path d="M32.1695 1.1424H30.1891V11.3759H32.1695V1.1424Z" fill="white"/>
<path d="M34.7967 1.1424H32.8164V11.3759H34.7967V1.1424Z" fill="white"/>
<path d="M39.1561 3.87697C36.7982 3.87697 35.4241 5.43079 35.4241 7.62229C35.4241 9.81379 36.8052 11.376 39.1561 11.376C41.5069 11.376 42.8796 9.81518 42.8796 7.62229C42.8796 5.42939 41.5126 3.87697 39.1561 3.87697ZM39.1561 9.6314C38.0768 9.6314 37.382 8.85449 37.382 7.62229C37.382 6.39009 38.0838 5.6285 39.1561 5.6285C40.2283 5.6285 40.9147 6.39148 40.9147 7.62229C40.9147 8.85309 40.2354 9.6314 39.1561 9.6314Z" fill="white"/>
<path d="M44.5119 9.23589C43.9309 9.23589 43.4298 9.71345 43.4298 10.3024C43.4298 10.8914 43.9295 11.3745 44.5119 11.3745C45.0944 11.3745 45.594 10.8914 45.594 10.3024C45.594 9.71345 45.0944 9.23589 44.5119 9.23589Z" fill="white"/>
<path d="M47.3558 1.0772C46.706 1.0772 46.1432 1.59792 46.1432 2.24256C46.1432 2.8872 46.6891 3.41489 47.3558 3.41489C48.0225 3.41489 48.5825 2.8872 48.5825 2.24256C48.5825 1.59792 48.0056 1.0772 47.3558 1.0772Z" fill="white"/>
<path d="M48.3535 4.1554H46.3732V11.3759H48.3535V4.1554Z" fill="white"/>
<path d="M52.7926 3.87697C50.4347 3.87697 49.0607 5.43079 49.0607 7.62229C49.0607 9.81379 50.4417 11.376 52.7926 11.376C55.1435 11.376 56.5161 9.81518 56.5161 7.62229C56.5161 5.42939 55.1491 3.87697 52.7926 3.87697ZM52.7926 9.6314C51.7147 9.6314 51.0186 8.85449 51.0186 7.62229C51.0186 6.39009 51.7203 5.6285 52.7926 5.6285C53.8649 5.6285 54.5512 6.39148 54.5512 7.62229C54.5512 8.85309 53.8719 9.6314 52.7926 9.6314Z" fill="white"/>
<path d="M11.5743 1.70903H9.6276L10.6381 3.42436L11.5743 1.70903Z" fill="white"/>
<path d="M7.37084 -0.00762939L0.483826 11.3718H4.17225C4.66488 11.3718 5.14909 11.2478 5.57576 11.0153C6.03751 10.7633 6.38698 10.3971 6.65926 9.95298C6.97786 9.43365 7.28804 8.90875 7.60102 8.38663L8.40383 7.05001L7.36804 5.32911L6.90909 6.06147C6.38558 6.92888 5.89014 7.81717 5.34839 8.67345C5.07611 9.10228 4.71962 9.50884 4.1947 9.61326C4.11611 9.62858 4.0347 9.63693 3.9533 9.63971C3.84523 9.64389 3.73716 9.64111 3.62909 9.64111L7.37084 3.32557L12.1722 11.3968H13.5617V10.2106L13.5294 10.1577L7.37084 -0.00762939Z" fill="white"/>
</g>
<defs>
<clipPath id="clip0_2_355">
<rect width="57" height="14" fill="white"/>
</clipPath>
</defs>
</svg>
